<mxfile host="65bd71144e">
    <diagram id="-2IKlDImt2zgSLZHMaVT" name="Page-1">
        <mxGraphModel dx="227" dy="485" grid="1" gridSize="10" guides="1" tooltips="1" connect="1" arrows="1" fold="1" page="1" pageScale="1" pageWidth="850" pageHeight="1100" math="0" shadow="0">
            <root>
                <mxCell id="0"/>
                <mxCell id="1" parent="0"/>
                <mxCell id="2" value="" style="whiteSpace=wrap;html=1;" vertex="1" parent="1">
                    <mxGeometry x="130" y="80" width="420" height="440" as="geometry"/>
                </mxCell>
                <mxCell id="3" value="" style="whiteSpace=wrap;html=1;strokeColor=#E8E8E8;fillColor=#FFFFFF;" vertex="1" parent="1">
                    <mxGeometry x="130" y="80" width="420" height="30" as="geometry"/>
                </mxCell>
                <mxCell id="8" value="Username:" style="text;strokeColor=none;align=center;fillColor=none;html=1;verticalAlign=middle;whiteSpace=wrap;rounded=0;" vertex="1" parent="1">
                    <mxGeometry x="120" y="190" width="200" height="30" as="geometry"/>
                </mxCell>
                <mxCell id="9" value="" style="whiteSpace=wrap;html=1;strokeColor=#E8E8E8;fillColor=#FFFFFF;" vertex="1" parent="1">
                    <mxGeometry x="270" y="190" width="210" height="30" as="geometry"/>
                </mxCell>
                <mxCell id="10" value="" style="whiteSpace=wrap;html=1;strokeColor=#E8E8E8;fillColor=#FFFFFF;" vertex="1" parent="1">
                    <mxGeometry x="180" y="285" width="120" height="30" as="geometry"/>
                </mxCell>
                <mxCell id="11" value="Head Color:" style="text;strokeColor=none;align=center;fillColor=none;html=1;verticalAlign=middle;whiteSpace=wrap;rounded=0;" vertex="1" parent="1">
                    <mxGeometry x="270" y="250" width="120" height="30" as="geometry"/>
                </mxCell>
                <mxCell id="14" value="" style="whiteSpace=wrap;html=1;strokeColor=#E8E8E8;fillColor=#FFFFFF;" vertex="1" parent="1">
                    <mxGeometry x="360" y="285" width="120" height="30" as="geometry"/>
                </mxCell>
                <mxCell id="15" value="" style="whiteSpace=wrap;html=1;strokeColor=#E8E8E8;fillColor=#FFFFFF;" vertex="1" parent="1">
                    <mxGeometry x="180" y="330" width="120" height="30" as="geometry"/>
                </mxCell>
                <mxCell id="16" value="" style="whiteSpace=wrap;html=1;strokeColor=#E8E8E8;fillColor=#FFFFFF;" vertex="1" parent="1">
                    <mxGeometry x="360" y="330" width="120" height="30" as="geometry"/>
                </mxCell>
                <mxCell id="17" value="Head Color:" style="text;strokeColor=none;align=center;fillColor=none;html=1;verticalAlign=middle;whiteSpace=wrap;rounded=0;" vertex="1" parent="1">
                    <mxGeometry x="270" y="380" width="120" height="30" as="geometry"/>
                </mxCell>
            </root>
        </mxGraphModel>
    </diagram>
</mxfile>